<?xml version="1.0" encoding="UTF-8" standalone="no"?>
<!-- Created with Inkscape (http://www.inkscape.org/) -->

<svg
   width="64mm"
   height="64mm"
   viewBox="0 0 64 64.000001"
   version="1.1"
   id="svg5"
   xml:space="preserve"
   inkscape:version="1.2.1 (9c6d41e410, 2022-07-14)"
   sodipodi:docname="json-xrpc.svg"
   inkscape:export-filename="json-xrpc.png"
   inkscape:export-xdpi="101.20312"
   inkscape:export-ydpi="101.20312"
   xmlns:inkscape="http://www.inkscape.org/namespaces/inkscape"
   xmlns:sodipodi="http://sodipodi.sourceforge.net/DTD/sodipodi-0.dtd"
   xmlns:xlink="http://www.w3.org/1999/xlink"
   xmlns="http://www.w3.org/2000/svg"
   xmlns:svg="http://www.w3.org/2000/svg"><sodipodi:namedview
     id="namedview7"
     pagecolor="#ffffff"
     bordercolor="#666666"
     borderopacity="1.0"
     inkscape:showpageshadow="2"
     inkscape:pageopacity="0.0"
     inkscape:pagecheckerboard="0"
     inkscape:deskcolor="#d1d1d1"
     inkscape:document-units="mm"
     showgrid="false"
     inkscape:zoom="1.9138274"
     inkscape:cx="89.088492"
     inkscape:cy="120.70054"
     inkscape:window-width="1920"
     inkscape:window-height="1019"
     inkscape:window-x="0"
     inkscape:window-y="0"
     inkscape:window-maximized="1"
     inkscape:current-layer="layer1" /><defs
     id="defs2"><linearGradient
       id="linearGradient8385"><stop
         offset="0"
         id="stop3026" /><stop
         stop-color="#fff"
         offset="1"
         id="stop3028" /></linearGradient><linearGradient
       id="linearGradient3002"
       x1="-553.27002"
       x2="-666.12"
       y1="525.90997"
       y2="413.04999"
       gradientTransform="matrix(0.99884,0,0,0.9987,689.01,-388.84)"
       gradientUnits="userSpaceOnUse"
       xlink:href="#linearGradient8385" /><linearGradient
       id="linearGradient3005"
       x1="-666.12"
       x2="-553.27002"
       y1="413.04001"
       y2="525.90997"
       gradientTransform="matrix(0.99884,0,0,0.9987,689.01,-388.84)"
       gradientUnits="userSpaceOnUse"
       xlink:href="#linearGradient8385" /></defs><g
     inkscape:label="Layer 1"
     inkscape:groupmode="layer"
     id="layer1"
     transform="translate(-44.070862,-72.11002)"><circle
       style="fill:#e6e6e6;stroke-width:0.694837;stop-color:#000000"
       id="path5123"
       cx="76.070862"
       cy="104.11002"
       r="30" /><text
       xml:space="preserve"
       style="font-size:15.3017px;line-height:1.25;font-family:sans-serif;letter-spacing:0px;word-spacing:0px;direction:rtl;stroke-width:0.382543"
       x="84.808113"
       y="95.406006"
       id="text1153"><tspan
         sodipodi:role="line"
         id="tspan1151"
         style="font-style:normal;font-variant:normal;font-weight:normal;font-stretch:normal;font-family:'Noto Serif';-inkscape-font-specification:'Noto Serif';stroke-width:0.382543"
         x="84.808113"
         y="95.406006">{;}</tspan></text><text
       xml:space="preserve"
       style="font-size:15.3017px;line-height:1.25;font-family:sans-serif;letter-spacing:0px;word-spacing:0px;direction:ltr;stroke-width:0.382543"
       x="57.53286"
       y="124.29031"
       id="text1157"><tspan
         sodipodi:role="line"
         id="tspan1155"
         style="font-style:normal;font-variant:normal;font-weight:normal;font-stretch:normal;font-family:'Noto Serif';-inkscape-font-specification:'Noto Serif';direction:ltr;stroke-width:0.382543"
         x="57.53286"
         y="124.29031"><tspan
   style="fill:#ff0000"
   id="tspan5069">x</tspan>RPC</tspan></text><g
       fill-rule="evenodd"
       id="g3039"
       transform="matrix(0.03865976,0,0,0.03865976,72.978079,102.39439)"><path
         d="m 79.865,119.1 c 35.398,48.255 70.04,-13.469 69.989,-50.587 C 149.7938,24.627 105.313,0.099 79.836,0.099 38.944,0.099 0,33.895 0,80.135 0,131.531 44.64,160 79.836,160 71.8715,158.8532 45.33,153.166 44.973,92.033 44.73313,50.686 58.461,34.167 79.778,41.434 c 0.47743,0.17707 23.514,9.2645 23.514,38.951 0,29.56 -23.427,38.715 -23.427,38.715 z"
         color="#000000"
         fill="url(#linearGradient3005)"
         id="path3035"
         style="fill:url(#linearGradient3005)" /><path
         d="M 79.823,41.401 C 56.433,33.3391 27.78,52.617 27.78,91.23 27.78,154.278 74.501,160 80.164,160 121.056,160 160,126.204 160,79.964 160,28.568 115.36,0.099 80.164,0.099 c 9.7481,-1.35 52.541,10.55 52.541,69.037 0,38.141 -31.953,58.905 -52.735,50.033 -0.47743,-0.17707 -23.514,-9.2645 -23.514,-38.951 0,-29.56 23.367,-38.818 23.367,-38.818 z"
         color="#000000"
         fill="url(#linearGradient3002)"
         id="path3037"
         style="fill:url(#linearGradient3002)" /></g></g></svg>
